<?xml version="1.0" encoding="utf-8"?>
<!-- Generator: Adobe Illustrator 22.0.1, SVG Export Plug-In . SVG Version: 6.00 Build 0)  -->
<svg version="1.1" id="Capa_1" xmlns="http://www.w3.org/2000/svg" xmlns:xlink="http://www.w3.org/1999/xlink" x="0px" y="0px"
	 viewBox="0 0 625.4 625.4" style="enable-background:new 0 0 625.4 625.4;" xml:space="preserve">
<style type="text/css">
	.st0{fill:#FFFFFF;}
</style>
<path class="st0" d="M450.6,404.1l-91.4-91.4l91.4-91.4c10.5-10.5,10.5-27.4,0-37.9l-8.5-8.5c-5-5.1-11.8-7.9-19-7.9h0
	c-7.2,0-13.9,2.8-19,7.9l-91.4,91.5l-91.4-91.4c-10.5-10.5-27.4-10.6-37.9-0.1l-8.5,8.4c-5.1,5-7.9,11.8-7.9,19c0,7.2,2.8,14,7.9,19
	l91.5,91.4l-91.4,91.4c-10.5,10.5-10.5,27.4,0,38l8.5,8.5c5,5.1,11.8,7.9,19,7.9c7.1,0,14-2.9,19-7.9l91.4-91.4l91.4,91.3
	c5.2,5.2,12.1,7.9,19,7.9c6.8,0,13.7-2.6,18.9-7.8l8.5-8.5c5.1-5,7.9-11.8,7.9-19C458.5,415.9,455.7,409.1,450.6,404.1L450.6,404.1z
	"/>
</svg>
