<?xml version="1.0" encoding="utf-8"?>
<!-- Generator: Adobe Illustrator 22.0.1, SVG Export Plug-In . SVG Version: 6.00 Build 0)  -->
<svg version="1.1" id="Capa_1" xmlns="http://www.w3.org/2000/svg" xmlns:xlink="http://www.w3.org/1999/xlink" x="0px" y="0px"
	 viewBox="0 0 20 20" style="enable-background:new 0 0 20 20;" xml:space="preserve">
<style type="text/css">
	.st0{fill:#FFFFFF;}
</style>
<title>filter2</title>
<g>
	<g>
		<path class="st0" d="M19,7h-2.3c-0.6-1-1.8-1.3-2.7-0.7c-0.3,0.2-0.5,0.4-0.7,0.7H1C0.4,7,0,7.4,0,8s0.4,1,1,1h12.3
			c0.6,1,1.8,1.3,2.7,0.7c0.3-0.2,0.5-0.4,0.7-0.7H19c0.6,0,1-0.4,1-1S19.6,7,19,7z"/>
		<path class="st0" d="M19,13H9.7c-0.6-1-1.8-1.3-2.7-0.7c-0.3,0.2-0.5,0.4-0.7,0.7H1c-0.6,0-1,0.4-1,1s0.4,1,1,1h5.3
			c0.6,1,1.8,1.3,2.7,0.7c0.3-0.2,0.5-0.4,0.7-0.7H19c0.6,0,1-0.4,1-1S19.6,13,19,13z"/>
		<path class="st0" d="M1,3h2.3C3.8,3.9,5.1,4.3,6,3.7C6.3,3.5,6.5,3.3,6.7,3H19c0.6,0,1-0.4,1-1s-0.4-1-1-1H6.7
			C6.2,0.1,4.9-0.3,4,0.3C3.7,0.5,3.5,0.7,3.3,1H1C0.4,1,0,1.4,0,2S0.4,3,1,3z"/>
	</g>
</g>
</svg>
