<svg id="Capa_1" data-name="Capa 1" xmlns="http://www.w3.org/2000/svg" viewBox="0 0 306 275.67">
  <defs>
    <style>
      .cls-1 {
        fill: #123d66;
      }
    </style>
  </defs>
  <title>iconos esports</title>
  <polygon class="cls-1" points="189.45 198.67 226.47 198.67 238.91 166.38 198.67 44.92 149.33 44.92 149.33 41.92 200.83 41.92 242.09 166.46 228.53 201.67 188.05 201.67 150.54 156.71 150.45 156.6 112.86 201.67 72.38 201.67 58.81 166.46 100.07 41.92 151.57 41.92 151.57 44.92 102.24 44.92 62 166.38 74.44 198.67 111.45 198.67 150.45 151.91 189.45 198.67"/>
  <polygon class="cls-1" points="217.33 21.17 207.58 21.17 160.08 21.17 159.17 21.17 150.29 30.05 141.42 21.17 140.5 21.17 93 21.17 83.25 21.17 23.25 191 42.92 191 47.92 201.34 61.25 201.34 52.58 180 40.33 180 92.09 33.78 93 33.78 93 34 150.29 33.89 207.58 34 207.58 33.78 208.49 33.78 260.25 180 248 180 239.33 201.34 252.67 201.34 257.67 191 277.33 191 217.33 21.17"/>
  <path class="cls-1" d="M263.67,199l-5,11-103.75-.44L151,205.67l-7.17,7.17L153,222h78l-6.36,14.84H77.32L71,222H123.5l28-29.95,9,9.29H175l-24.55-29.42-30.87,37.67L41.83,210l-5-11H23.17v12h4.66l5.34,11H67.7l7.64,17.84H94.15L99,251.17H203l4.85-11.33h18.81L234.28,222h33l5.34-11h4.66V199ZM201,248.17H101l-3.57-8.33H204.56Z"/>
</svg>
