<?xml version="1.0" encoding="utf-8"?>
<!-- Generator: Adobe Illustrator 22.0.1, SVG Export Plug-In . SVG Version: 6.00 Build 0)  -->
<svg version="1.1" id="Capa_1" xmlns="http://www.w3.org/2000/svg" xmlns:xlink="http://www.w3.org/1999/xlink" x="0px" y="0px"
	 viewBox="0 0 266.4 269.1" style="enable-background:new 0 0 266.4 269.1;" xml:space="preserve">
<style type="text/css">
	.st0{fill:#FFFFFF;}
</style>
<path class="st0" d="M234.3,212.5c-1.1-2.6-3.3-3.2-6-3.1c-4.6,0.1-9.3,0-14.1,0c0-0.1-23.5,0-27.4,0c-0.1,0-19.3,0-19.6,0
	c-13.5,0-27.1,0-40.6,0c-0.2,0-0.3-0.1-0.6-0.2c0-18.7,0-37.5,0-56.3h-0.1v-89c0-3.1,0-6.4,0-9.8v-11h-0.1c0-4.9,0-9.8,0-14.6
	c0-3.8-2-5.9-5.7-5.9c-20.3,0-40.7,0-61,0c-2.3,0-4.1,0.8-5.2,2.9c-1.2,2.2-0.6,4.2,0.9,6.1c2.3,3.1,4.3,6.5,7,9.2
	c6,6.1,7.1,21.6,7,21.7v15.4c0,5,0,9.5,0,13.9c0,0.2-0.1,0.4-0.1,0.5v18.3c0,1.8,0,3.6,0,5.3h0.2v87.4c0.1,0.5,0.1,1,0.1,1.5
	c-0.2,3.7,0,7.4,0,11.2c0.3,4.4-0.7,8.4-3.6,11.9c-0.1,0.2-0.5,0.7-0.8,1.2c-3.3,4.4-6.6,8.7-9.8,13.2c-2.7,3.7-0.7,8,3.9,8.5
	c0.8,0.1,1.6,0,2.4,0c13.1,0,26.1,0,39.2,0c33.8,0,67.6,0,101.4,0c3.3,0,5.6-1,7.7-3.6c7.8-9.6,15.7-19,23.7-28.5
	C234.3,217,235.4,215,234.3,212.5z"/>
</svg>
