<svg id="Capa_1" data-name="Capa 1" xmlns="http://www.w3.org/2000/svg" viewBox="0 0 266.4 269.11">
  <defs>
    <style>
      .cls-1 {
        fill: #123d66;
      }
    </style>
  </defs>
  <title>iconos esports</title>
  <path class="cls-1" d="M234.32,212.52c-1.13-2.61-3.31-3.2-6-3.13-4.63.1-9.27,0-14.05,0,0-.07-23.53,0-27.4,0H167.27q-20.33.06-40.64,0a3,3,0,0,1-.65-.18V152.93h-.06V43.13h-.13c0-4.94,0-9.77,0-14.61,0-3.82-2-5.92-5.73-5.92q-30.49,0-61,0a5.38,5.38,0,0,0-5.22,2.85c-1.16,2.19-.58,4.19.86,6.07C57,34.57,59,38,61.73,40.72c6,6.06,7.06,21.61,7,21.68V77.8c0,5,0,9.46,0,14a1.34,1.34,0,0,1-.13.54v23.64h.16v87.44a7.83,7.83,0,0,1,.08,1.48c-.17,3.69,0,7.38,0,11.22A16.28,16.28,0,0,1,65.13,228c-.12.17-.47.71-.85,1.21-3.28,4.4-6.62,8.74-9.83,13.19-2.67,3.7-.66,8,3.88,8.48.8.08,1.61,0,2.42,0H100q50.72,0,101.42.05a9,9,0,0,0,7.68-3.59c7.79-9.56,15.72-19,23.66-28.46C234.33,217,235.39,215,234.32,212.52Z"/>
</svg>
