<svg id="Capa_1" data-name="Capa 1" xmlns="http://www.w3.org/2000/svg" viewBox="0 0 370 275.67">
  <defs>
    <style>
      .cls-1 {
        fill: #123d66;
      }
    </style>
  </defs>
  <title>iconos esports</title>
  <g>
    <path class="cls-1" d="M54.19,79V26.83a4.69,4.69,0,0,1,0-1.3c.18-.6.48-1.6.8-1.63a2.72,2.72,0,0,1,2.09.67c3.55,4.31,7,8.71,10.49,13.09q5.61,7.06,11.23,14.13c4.1,5.15,8.22,10.27,12.31,15.42s8.14,10.32,12.24,15.46C108,88.44,112.6,94.18,117.2,100s9.32,11.73,14,17.61,9.13,11.57,13.72,17.34,9.22,11.5,13.82,17.27,9.15,11.56,13.73,17.33q6.08,7.65,12.18,15.28c4.1,5.14,8.23,10.27,12.32,15.41q7,8.79,14,17.61t13.71,17.34c2.6,3.27,5.24,6.52,7.83,9.79,1.18,1.48.9,2.35-.94,2.92a7,7,0,0,1-2,.3q-40.06,0-80.12,0a9.17,9.17,0,0,1-7.58-3.86c-4.62-5.9-9.3-11.76-14-17.63q-7.39-9.31-14.78-18.62l-12.36-15.6L88.47,177q-6.14-7.72-12.28-15.43T63.9,146.16c-2.76-3.46-5.62-6.84-8.22-10.41a7.62,7.62,0,0,1-1.42-4.21C54.16,114,54.19,96.51,54.19,79Z"/>
    <path class="cls-1" d="M326.68,78.63c0,17,0,33.9,0,50.85a13.1,13.1,0,0,1-3.19,8.4q-6.82,8.69-13.69,17.34c-3.59,4.53-7.18,9.06-10.84,13.53a9,9,0,0,1-7.37,3.42c-27.31,0-54.63,0-82,0a5,5,0,0,1-2.12-.44c0-1.17-.11-2.63.52-3.45,5.55-7.2,11.23-14.29,16.9-21.39,4.59-5.77,9.23-11.5,13.82-17.27s9.13-11.57,13.72-17.33,9.22-11.51,13.81-17.28S275.46,83.41,280,77.64q6.07-7.65,12.18-15.28,6.91-8.64,13.82-17.27,7-8.79,14-17.6a16.48,16.48,0,0,0,1.84-2.29,2.68,2.68,0,0,1,3.62-1.29c.7.31,1.14,1.92,1.15,2.94C326.7,44.11,326.68,61.37,326.68,78.63Z"/>
  </g>
</svg>
