<?xml version="1.0" encoding="utf-8"?>
<!-- Generator: Adobe Illustrator 22.0.1, SVG Export Plug-In . SVG Version: 6.00 Build 0)  -->
<svg version="1.1" id="Capa_1" xmlns="http://www.w3.org/2000/svg" xmlns:xlink="http://www.w3.org/1999/xlink" x="0px" y="0px"
	 viewBox="0 0 306 275.7" style="enable-background:new 0 0 306 275.7;" xml:space="preserve">
<style type="text/css">
	.st0{fill:#FFFFFF;}
</style>
<g>
	<polygon class="st0" points="189.5,198.7 226.5,198.7 238.9,166.4 198.7,44.9 149.3,44.9 149.3,41.9 200.8,41.9 242.1,166.5 
		228.5,201.7 188,201.7 150.5,156.7 150.5,156.6 112.9,201.7 72.4,201.7 58.8,166.5 100.1,41.9 151.6,41.9 151.6,44.9 102.2,44.9 
		62,166.4 74.4,198.7 111.5,198.7 150.5,151.9 	"/>
</g>
<polygon class="st0" points="217.3,21.2 207.6,21.2 160.1,21.2 159.2,21.2 150.3,30 141.4,21.2 140.5,21.2 93,21.2 83.3,21.2 
	23.3,191 42.9,191 47.9,201.3 61.3,201.3 52.6,180 40.3,180 92.1,33.8 93,33.8 93,34 150.3,33.9 207.6,34 207.6,33.8 208.5,33.8 
	260.3,180 248,180 239.3,201.3 252.7,201.3 257.7,191 277.3,191 "/>
<path class="st0" d="M263.7,199l-5,11l-103.8-0.4l-3.9-3.9l-7.2,7.2l9.2,9.2h78l-6.4,14.8H179h-56H77.3L71,222h52.5l28-30l9,9.3H175
	l-24.5-29.4l-30.9,37.7L41.8,210l-5-11H23.2v12h4.7l5.3,11h34.5l7.6,17.8h18.8l4.9,11.3h34.3h35.4H203l4.9-11.3h18.8l7.6-17.8h33.1
	l5.3-11h4.7v-12H263.7z M201,248.2h-32.3h-35.4H101l-3.6-8.3H123h56h25.6L201,248.2z"/>
</svg>
