<?xml version="1.0" encoding="utf-8"?>
<!-- Generator: Adobe Illustrator 22.0.1, SVG Export Plug-In . SVG Version: 6.00 Build 0)  -->
<svg version="1.1" id="Capa_1" xmlns="http://www.w3.org/2000/svg" xmlns:xlink="http://www.w3.org/1999/xlink" x="0px" y="0px"
	 viewBox="0 0 31.3 32" style="enable-background:new 0 0 31.3 32;" xml:space="preserve">
<style type="text/css">
	.st0{fill:#A3A3A3;}
</style>
<g>
	<path class="st0" d="M5.8,12.1c0,4.9,4,8.8,8.9,8.8c4.9,0,8.9-3.9,8.9-8.8c0-4.9-4-8.8-8.9-8.8C9.7,3.3,5.8,7.3,5.8,12.1z
		 M8.6,12.1c0-3.3,2.7-6,6.1-6c3.3,0,6,2.7,6,6c0,3.3-2.7,6-6,6C11.3,18.1,8.6,15.5,8.6,12.1z M19.6,18.9l5.1,5.6
		c0.6,0.6,1,0.6,1.6,0l1.2-1.2c0.6-0.6,0.6-1,0-1.6l-5.7-5L19.6,18.9z"/>
</g>
</svg>
